<svg width="561" height="884" viewBox="0 0 561 884" fill="none" xmlns="http://www.w3.org/2000/svg">
<g opacity="0.32">
<path opacity="0.6" d="M70.6309 32.8367C70.6309 28.3103 74.3018 24.6394 78.8282 24.6394C83.3547 24.6394 87.0255 28.3103 87.0255 32.8367C87.0255 37.3632 83.3547 41.034 78.8282 41.034C74.3018 41.034 70.6309 37.3632 70.6309 32.8367Z" fill="#19A7CE"/>
<path opacity="0.6" d="M87.5869 551.303C87.5869 545.153 92.57 540.169 98.7209 540.169C104.872 540.169 109.855 545.153 109.855 551.303C109.855 557.454 104.872 562.437 98.7209 562.437C92.57 562.437 87.5869 557.454 87.5869 551.303Z" fill="#19A7CE"/>
<path opacity="0.6" d="M515.576 893.695C523.503 893.695 529.93 887.268 529.93 879.341C529.93 871.413 523.503 864.987 515.576 864.987C507.648 864.987 501.222 871.413 501.222 879.341C501.222 887.268 507.648 893.695 515.576 893.695Z" fill="#19A7CE"/>
<path opacity="0.6" d="M262.43 412.036C262.43 407.486 266.118 403.792 270.673 403.792C275.229 403.792 278.917 407.48 278.917 412.036C278.917 416.591 275.229 420.279 270.673 420.279C266.118 420.279 262.43 416.591 262.43 412.036Z" fill="#19A7CE"/>
<path opacity="0.6" d="M238.069 113.953C241.663 105.275 237.542 95.3266 228.864 91.732C220.187 88.1375 210.238 92.2585 206.643 100.936C203.049 109.614 207.17 119.563 215.848 123.158C224.526 126.752 234.474 122.631 238.069 113.953Z" fill="#19A7CE"/>
<path opacity="0.6" d="M0 386.218C0 380.75 4.43396 376.316 9.90269 376.316C15.3714 376.316 19.8054 380.75 19.8054 386.218C19.8054 391.687 15.3714 396.121 9.90269 396.121C4.43396 396.121 0 391.687 0 386.218Z" fill="#19A7CE"/>
<path opacity="0.6" d="M522.234 827.877C523.664 821.818 519.912 815.746 513.852 814.316C507.793 812.886 501.722 816.639 500.292 822.698C498.861 828.757 502.614 834.829 508.673 836.259C514.733 837.689 520.804 833.936 522.234 827.877Z" fill="#19A7CE"/>
<path opacity="0.6" d="M271.33 692.531C279.295 691.743 285.113 684.647 284.325 676.682C283.537 668.717 276.441 662.899 268.476 663.687C260.511 664.475 254.693 671.571 255.481 679.536C256.269 687.501 263.365 693.319 271.33 692.531Z" fill="#19A7CE"/>
<path opacity="0.6" d="M77.8744 859.922C84.4162 859.922 89.7194 854.619 89.7194 848.077C89.7194 841.536 84.4162 836.232 77.8744 836.232C71.3325 836.232 66.0293 841.536 66.0293 848.077C66.0293 854.619 71.3325 859.922 77.8744 859.922Z" fill="#19A7CE"/>
<path opacity="0.6" d="M166.224 94.2769C172.948 94.2769 178.399 88.8262 178.399 82.1023C178.399 75.3785 172.948 69.9277 166.224 69.9277C159.501 69.9277 154.05 75.3785 154.05 82.1023C154.05 88.8262 159.501 94.2769 166.224 94.2769Z" fill="#19A7CE"/>
<path opacity="0.6" d="M124.677 130.419C124.677 125.135 128.96 120.852 134.244 120.852C139.528 120.852 143.812 125.135 143.812 130.419C143.812 135.703 139.528 139.986 134.244 139.986C128.96 139.986 124.677 135.703 124.677 130.419Z" fill="#19A7CE"/>
<path opacity="0.6" d="M350.822 429.827C358.32 425.192 360.641 415.357 356.007 407.858C351.372 400.36 341.536 398.038 334.038 402.673C326.54 407.308 324.218 417.144 328.853 424.642C333.487 432.14 343.323 434.462 350.822 429.827Z" fill="#19A7CE"/>
<path opacity="0.6" d="M231.431 795.414C233.637 786.07 227.85 776.707 218.506 774.502C209.162 772.297 199.8 778.084 197.595 787.427C195.389 796.771 201.176 806.133 210.52 808.339C219.864 810.544 229.226 804.757 231.431 795.414Z" fill="#19A7CE"/>
<path opacity="0.6" d="M260.251 378.975C263.443 378.975 266.032 376.387 266.032 373.194C266.032 370.001 263.443 367.413 260.251 367.413C257.058 367.413 254.47 370.001 254.47 373.194C254.47 376.387 257.058 378.975 260.251 378.975Z" fill="#19A7CE"/>
<path opacity="0.6" d="M291.988 223.601C295.835 223.601 298.953 220.483 298.953 216.635C298.953 212.788 295.835 209.669 291.988 209.669C288.14 209.669 285.021 212.788 285.021 216.635C285.021 220.483 288.14 223.601 291.988 223.601Z" fill="#19A7CE"/>
</g>
</svg>
